<svg fill="none" height="92" viewBox="0 0 204 92" width="204" xmlns="http://www.w3.org/2000/svg"><path d="m25.8294 59.4121v-26.6603h4.8296v12.2497h.3254l10.4012-12.2497h5.897l-10.31 11.9633 10.4011 14.697h-5.8059l-7.9538-11.4295-2.955 3.4887v7.9408zm24.2286 7.4982c-1.2888 0-2.4343-.2343-3.0722-.4947l1.0935-3.671c2.0568.5989 3.4367.4426 4.3088-1.8355l.4036-1.0804-7.2509-20.4118h4.9988l4.6083 15.1005h.2083l4.6213-15.1005h5.0118l-8.0059 22.4165c-1.1326 3.1893-3.2544 5.0769-6.9254 5.0769zm21.0717-34.1585v26.6603h-4.7124v-26.6603zm11.865 27.0508c-6.0272 0-9.7112-3.9964-9.7112-10.2709 0-6.1704 3.7361-10.3752 9.4639-10.3752 4.9207 0 9.1384 3.0852 9.1384 10.1018v1.445h-13.9289c.039 3.4236 2.0568 5.4283 5.1029 5.4283 2.0308 0 3.5929-.8852 4.2308-2.5775l4.4.4947c-.8332 3.4757-4.0355 5.7538-8.6959 5.7538zm-5.0248-12.2757h9.3988c-.0261-2.7207-1.8485-4.6994-4.5562-4.6994-2.8118 0-4.6994 2.148-4.8426 4.6994zm25.3711 11.8852v-26.6603h10.206c5.78 0 8.643 2.942 8.643 6.9124 0 3.2414-2.056 5.0639-4.66 5.6758v.2603c2.838.1432 5.702 2.5124 5.702 6.5479 0 4.1527-2.994 7.2639-9.1 7.2639zm4.829-4.0355h5.194c3.502 0 4.96-1.484 4.96-3.6059 0-2.3822-1.848-4.2047-4.829-4.2047h-5.325zm0-11.2863h4.778c2.512 0 4.413-1.458 4.413-3.8012 0-2.0568-1.471-3.5538-4.309-3.5538h-4.882zm22.976 15.7254c-3.814 0-6.691-2.0829-6.691-6.0142 0-4.5042 3.71-5.6627 7.589-6.0793 3.528-.3775 4.947-.4426 4.947-1.7964v-.0781c0-1.9657-1.198-3.0852-3.385-3.0852-2.304 0-3.632 1.1715-4.1 2.5384l-4.4-.6248c1.041-3.645 4.27-5.5196 8.474-5.5196 3.814 0 8.123 1.5882 8.123 6.8734v13.3822h-4.53v-2.7467h-.156c-.859 1.6793-2.734 3.1503-5.871 3.1503zm1.224-3.4628c2.837 0 4.634-1.8875 4.634-4.1136v-2.3562c-.612.4947-3.085.8071-4.322.9764-2.109.2994-3.684 1.0544-3.684 2.8639 0 1.7313 1.406 2.6295 3.372 2.6295zm28.042-11.6508-4.295.4686c-.365-1.3148-1.511-2.4994-3.684-2.4994-1.966 0-3.463.9373-3.45 2.2911-.013 1.1586.794 1.8616 2.825 2.3172l3.41.729c3.775.8201 5.611 2.5645 5.624 5.4154-.013 3.7881-3.541 6.3786-8.54 6.3786-4.907 0-7.993-2.1739-8.578-5.8449l4.595-.4426c.403 1.7964 1.809 2.7337 3.97 2.7337 2.239 0 3.723-1.0284 3.723-2.3953 0-1.1325-.859-1.8745-2.694-2.2781l-3.411-.7159c-3.84-.7941-5.637-2.7207-5.624-5.6367-.013-3.697 3.268-6.0663 8.084-6.0663 4.687 0 7.394 2.161 8.045 5.5456zm18.286 0-4.296.4686c-.364-1.3148-1.51-2.4994-3.684-2.4994-1.965 0-3.462.9373-3.449 2.2911-.013 1.1586.794 1.8616 2.825 2.3172l3.41.729c3.775.8201 5.611 2.5645 5.624 5.4154-.013 3.7881-3.541 6.3786-8.54 6.3786-4.907 0-7.993-2.1739-8.578-5.8449l4.595-.4426c.403 1.7964 1.809 2.7337 3.97 2.7337 2.239 0 3.723-1.0284 3.723-2.3953 0-1.1325-.859-1.8745-2.694-2.2781l-3.411-.7159c-3.84-.7941-5.637-2.7207-5.624-5.6367-.013-3.697 3.268-6.0663 8.084-6.0663 4.687 0 7.394 2.161 8.045 5.5456z" fill="#000"/></svg>